<?xml version="1.0" encoding="UTF-8" standalone="no"?>
<!-- Generator: Adobe Illustrator 13.0.0, SVG Export Plug-In . SVG Version: 6.00 Build 14948)  -->

<svg
   xmlns:dc="http://purl.org/dc/elements/1.1/"
   xmlns:cc="http://creativecommons.org/ns#"
   xmlns:rdf="http://www.w3.org/1999/02/22-rdf-syntax-ns#"
   xmlns:svg="http://www.w3.org/2000/svg"
   xmlns="http://www.w3.org/2000/svg"
   xmlns:sodipodi="http://sodipodi.sourceforge.net/DTD/sodipodi-0.dtd"
   xmlns:inkscape="http://www.inkscape.org/namespaces/inkscape"
   version="1.1"
   x="0px"
   y="0px"
   width="128px"
   height="128px"
   viewBox="0 0 128 128"
   enable-background="new 0 0 128 128"
   xml:space="preserve"
   id="svg2"
   inkscape:version="0.48.2 r9819"
   sodipodi:docname="facebook-icon.svg"
   inkscape:export-filename="/Users/craig/Dropbox/code/auntiekims/inc/img/icons/facebook-icon.png"
   inkscape:export-xdpi="33.75"
   inkscape:export-ydpi="33.75"><metadata
   id="metadata19"><rdf:RDF><cc:Work
       rdf:about=""><dc:format>image/svg+xml</dc:format><dc:type
         rdf:resource="http://purl.org/dc/dcmitype/StillImage" /><dc:title></dc:title></cc:Work></rdf:RDF></metadata><defs
   id="defs17" /><sodipodi:namedview
   pagecolor="#ffffff"
   bordercolor="#666666"
   borderopacity="1"
   objecttolerance="10"
   gridtolerance="10"
   guidetolerance="10"
   inkscape:pageopacity="0"
   inkscape:pageshadow="2"
   inkscape:window-width="640"
   inkscape:window-height="480"
   id="namedview15"
   showgrid="false"
   inkscape:zoom="1.84375"
   inkscape:cx="64"
   inkscape:cy="64"
   inkscape:window-x="0"
   inkscape:window-y="0"
   inkscape:window-maximized="0"
   inkscape:current-layer="svg2" />
<g
   id="Layer_2">
	<path
   fill="#3B5998"
   d="M126,118c0,4.418-3.582,8-8,8H10c-4.418,0-8-3.582-8-8V10c0-4.418,3.582-8,8-8h108c4.418,0,8,3.582,8,8V118   z"
   id="path5" />
</g>
<g
   id="Layer_4">
	<g
   id="g8">
		<rect
   x="5.667"
   y="98.98"
   fill="#6D84B4"
   width="116.666"
   height="18.039"
   id="rect10" />
	</g>
</g>
<g
   id="Layer_3">
	<path
   fill="#FFFFFF"
   d="M93.376,117.012H72.203V65.767H61.625v-17.66h10.578V37.504c0-14.407,5.973-22.974,22.943-22.974h14.128   v17.662h-8.831c-6.606,0-7.043,2.468-7.043,7.074l-0.024,8.839h15.998l-1.872,17.66H93.376V117.012z"
   id="path13" />
</g>
</svg>