<svg width="2332.4907" viewBox="0 0 2332.4907 158.8324" height="158.83238" enable-background="new 0 0 800 300">
<g transform="matrix(.91955 0 0 .91955 -168.62686 -287.59113)">
<path fill="#520574" d="m250.069,316.032c-.275,.119-.553,.251-.826,.391-10.408,6.63-11.611,21.073-8.128,31.908 2.666,10.039 11.954,20.488 23.266,18.253 1.632-.345 3.148-1.133 4.458-2.153 10.789-9.46 10.186-26.672 3.22-38.226-3.855-7.73-13.468-13.868-21.99-10.173zm-47.346,20.41c-6.903,3.09-9.376,12.438-7.7,19.551 3.184,14.15 16.027,28.013 31.497,26.435 1.402-.258 2.744-.787 3.959-1.531 8.631-5.427 8.208-17.474 4.307-25.709-4.915-10.959-16.028-21.359-28.835-19.661-1.168,.162-2.241,.473-3.228,.915zm93.613,4.8c-11.764,5.771-15,21.273-11.474,33.009 1.796,8.776 10.657,17.813 20.18,14.589 12.834-5.557 15.866-23.024 11.268-35.039-2.467-8.185-11.072-15.775-19.974-12.559zm-104.501,46.868c-5.152,2.104-8.915,7.292-8.409,13.212 1.366,15.831 17.752,29.751 33.765,26.498 6.613-1.526 10.052-8.534 9.195-14.877-1.86-13.552-14.446-24.924-28.033-25.745-2.267-.26-4.502,.089-6.518,.912zm64.571,2.395c-10.056,4.233-18.141,13.618-21.476,23.947-3.332,11.808-4.782,24.531-2.358,36.658 .627,9.195 10.716,15.861 19.345,12.316 10.472-4.045 16.395-14.876 26.468-19.711 8.176-4.987 17.898-3.716 26.993-4.028 7.882,.062 16.662-4.9 17.064-13.523-.383-8.455-7.607-14.623-13.606-19.765-11.1-7.776-22.903-15.895-36.612-17.913-5.527-.882-10.907-.047-15.818,2.019z"/>
</g>
<text x="1002.942" y="124.777" fill="#520574" font-family="PlaytimeWithHotToddies" font-size="126.67079163px"><tspan font-family="Playtime With Hot Toddies" font-size="168.06054688px">Pet Sitting Services</tspan>
</text>
<g fill="#520574" transform="matrix(1.71493 0 0 1.71493 -95.40216 2.29509)" font-size="98px">
<text x="155.327" y="71.733" font-family="PlaytimeWithHotToddies"><tspan font-family="Playtime With Hot Toddies">Auntie Kim</tspan>
</text>
<text x="561.054" y="78.733" font-family="Playtime With Hot Toddies">‘</text>
<text x="574.409" y="70.213" font-family="PlaytimeWithHotToddies"><tspan font-family="Playtime With Hot Toddies">s</tspan>
</text>
</g>
</svg>
