<svg xmlns="http://www.w3.org/2000/svg" viewBox="0 0 419.1447 403.6048">
<g transform="translate(-118.99908 -256.27405)">
<path d="m281.7812,0c-.8826,.0113-1.788,.0545-2.6875,.125-35.8236,6.1835-55.5208,44.0643-58.375,77.4688-4.1707,30.3114 9.187,69.2705 42.4688,76.0625 4.8275,.9191 9.8436,.4991 14.5625-.7812 40.0769-13.4384 58.0118-60.903 52.2188-100.2188-1.684-25.3924-20.8256-53.0052-48.1875-52.6562zm-151.875,1.625c-22.2749,.5468-39.6266,23.1384-43.1562,44.375-7.4409,42.0743 11.6983,94.3519 55.5312,107.6562 4.1057,.8929 8.3525,.9848 12.5,.3438 29.6264-4.9375 42.177-38.1539 40.9375-64.9688-.8917-35.3725-19.2659-76.2732-56-86.2188-3.3578-.8904-6.6304-1.2656-9.8125-1.1875zm248.9375,119.5c-38.5343,2.3054-64.9527,40.7537-68.7188,76.6562-5.0996,25.8937 8.7049,60.5265 38.25,62.5938 41.1967-.5078 69.301-44.5285 70.4688-82.4062 2.6058-25.0513-12.151-55.4605-40-56.8438zm-337.2812,8.5312c-16.394-.1411-32.5176,9.6788-37.875,26.3438-14.2927,44.579 14.4089,101.0381 61.625,110.4062 19.7056,3.3721 37.0203-11.7609 41.9062-29.9688 10.3546-38.9448-10.9133-84.1652-46.9062-101.8438-5.8639-3.2909-12.335-4.8823-18.75-4.9375zm172.75,79.9375c-32.1394,.0685-64.7828,16.3782-85.5938,40.6562-22.4774,28.2972-40.8902,61.2265-48.0938,96.9375-8.7514,25.7065 11.0834,55.2905 38.5625,55.4688 33.0589,.9183 61.4708-21.783 94.3438-23.4688 27.8901-4.2517 52.8631,10.2552 77.9375,19.75 21.3493,9.1313 50.8503,5.632 61.75-17.3438 8.5736-23.4187-4.0459-48.39-14.5-69.1875-21.3222-33.757-44.1651-69.2358-79.125-90.3125-14.0129-8.6857-29.5853-12.5335-45.2812-12.5z" transform="translate(118.99908 256.27405)"/>
</g>
</svg>
